<svg width="40" height="40" viewBox="0 0 40 40" fill="none" xmlns="http://www.w3.org/2000/svg">
<rect x="0.25" y="0.25" width="39.5" height="39.5" rx="6.75" fill="#FAFAFA" stroke="#CBD5E1" stroke-width="0.5"/>
<g clip-path="url(#clip0_1_123)">
<path d="M31.0924 19.2414C30.5844 19.3515 29.2425 19.4126 29.2425 19.4126L29.0775 19.9099C29.0775 19.9099 29.7419 19.8569 30.2283 19.9017C30.2283 19.9017 30.3846 19.8895 30.402 20.0648C30.4107 20.2441 30.389 20.4316 30.389 20.4316C30.389 20.4316 30.3759 20.5416 30.2153 20.5701C30.0285 20.5987 28.7692 20.6517 28.7692 20.6517L28.5651 21.2956C28.5651 21.2956 28.4913 21.4424 28.6606 21.4016C28.817 21.3608 30.1371 21.1245 30.3108 21.1571C30.4932 21.1978 30.7016 21.4342 30.6408 21.6462C30.5713 21.9029 29.2512 22.6936 28.4522 22.6406C28.4522 22.6406 28.031 22.6651 27.6792 22.1312C27.3405 21.6217 27.7965 20.6639 27.7965 20.6639C27.7965 20.6639 27.5924 20.2156 27.7444 20.0525C27.7444 20.0525 27.8312 19.9832 28.0918 19.9629L28.4174 19.3352C28.4174 19.3352 28.0483 19.3556 27.8312 19.1029C27.6315 18.8583 27.6141 18.7524 27.7704 18.6871C27.9354 18.6056 29.464 18.3489 30.5149 18.3815C30.5149 18.3815 30.884 18.3407 31.2097 18.9398C31.2097 18.9398 31.3573 19.1844 31.0968 19.2414M27.1321 21.6543C27.0018 21.9518 26.6414 22.2657 26.2071 22.0741C25.7642 21.8785 25.065 20.5416 25.065 20.5416C25.065 20.5416 24.8045 20.0444 24.7524 20.0607C24.7524 20.0607 24.6959 19.9629 24.6655 20.509C24.6221 21.0511 24.6742 22.1067 24.4354 22.2738C24.2182 22.4369 23.9577 22.3676 23.81 22.176C23.6884 21.9844 23.6363 21.5239 23.7058 20.721C23.784 19.918 23.9794 19.0621 24.2269 18.7972C24.4875 18.5282 24.6959 18.7238 24.7741 18.7972C24.7741 18.7972 25.1084 19.0825 25.673 19.9262L25.7685 20.0811C25.7685 20.0811 26.2809 20.884 26.333 20.8799C26.333 20.8799 26.3765 20.9207 26.4112 20.8881C26.4633 20.8758 26.4459 20.615 26.4459 20.615C26.4459 20.615 26.3504 19.7468 25.8727 18.2796C25.8727 18.2796 25.8033 18.0921 25.851 17.9127C25.8944 17.7497 26.0812 17.8312 26.0812 17.8312C26.0812 17.8312 26.802 18.1573 27.1538 19.2577C27.5012 20.3582 27.2667 21.3568 27.1364 21.6543M23.5972 18.8298C23.5278 18.9439 23.4974 19.1029 23.1977 19.1477C23.1977 19.1477 20.2882 19.3393 20.1449 19.5308C20.1449 19.5308 20.0494 19.6449 20.2057 19.6735C20.3708 19.7061 21.0308 19.7876 21.3435 19.8039C21.6822 19.8039 22.8199 19.8121 23.2368 20.293C23.2368 20.293 23.4757 20.5212 23.467 21.0389C23.4583 21.5687 23.3584 21.7562 23.1369 21.9478C22.9068 22.1271 20.9353 22.9586 19.6629 21.6869C19.6629 21.6869 19.081 21.0755 19.867 20.6109C19.867 20.6109 20.4316 20.2848 21.8776 20.6639C21.8776 20.6639 22.3119 20.8106 22.2945 20.9614C22.2684 21.1245 21.9341 21.2875 21.4477 21.2793C20.9787 21.2671 20.6313 21.0552 20.7008 21.0918C20.7659 21.1122 20.1927 20.831 20.0147 21.0226C19.841 21.2019 19.8844 21.3079 20.0581 21.4179C20.4923 21.6543 22.199 21.5687 22.707 21.0348C22.707 21.0348 22.9111 20.8188 22.6028 20.6435C22.2988 20.4805 21.413 20.3786 21.0699 20.3664C20.7442 20.3501 19.524 20.3664 19.3416 20.0688C19.3416 20.0688 19.1679 19.8569 19.3589 19.2781C19.5587 18.6668 20.9787 18.4304 21.5953 18.3815C21.5953 18.3815 23.2889 18.3162 23.6059 18.6423C23.6059 18.6423 23.6494 18.7157 23.5972 18.8257M18.7944 22.4124C18.5903 22.555 18.1561 22.4939 18.0301 22.3309C17.9085 22.1882 17.8651 21.6258 17.8868 20.7413C17.9172 19.8365 17.9303 18.7279 18.1474 18.5486C18.3645 18.3733 18.4948 18.5282 18.5816 18.6464C18.6685 18.7687 18.7814 18.9032 18.7988 19.1844C18.8248 19.4697 18.8986 20.937 18.8986 20.937C18.8986 20.937 18.9942 22.2738 18.7988 22.4124M19.2287 17.6437C18.6294 17.8353 18.2212 17.7742 17.8738 17.6315C17.7218 17.8883 17.6306 17.9657 17.5177 17.982C17.344 17.9983 17.192 17.7375 17.1703 17.656C17.1356 17.5948 17.0531 17.4848 17.1529 17.2362C16.8142 16.9509 16.7882 16.5677 16.849 16.311C16.9271 16.0094 17.5003 14.8763 19.2374 14.7418C19.2374 14.7418 20.0885 14.6847 20.2361 15.1086H20.2622C20.2622 15.1086 21.0873 15.1086 21.0699 15.8015C21.0699 16.4944 20.158 17.3584 19.2287 17.656M20.0016 15.6711C19.4545 15.7526 18.612 16.4373 18.2082 17.0038C18.8292 17.1098 19.9148 17.0691 20.4012 16.1479C20.4012 16.1479 20.6313 15.5692 20.0016 15.6711ZM17.6002 16.1194C17.4265 16.3843 17.4178 16.5433 17.5003 16.6493C17.7044 16.3639 18.0649 15.9156 18.6077 15.5651C18.1908 15.6059 17.8391 15.7689 17.6002 16.1194ZM32.3952 22.3839C31.9957 23.305 31.657 24.2383 31.4616 25.6363C31.4616 25.6363 31.4181 25.9094 31.1793 25.8197C30.9405 25.7382 30.5496 25.3714 30.4628 24.8538C30.3759 24.1772 30.6973 23.036 31.353 21.7236C31.1619 21.4383 31.0273 21.0144 31.1359 20.4193C31.1359 20.4193 31.3096 19.3189 32.4821 18.3244C32.4821 18.3244 32.621 18.2144 32.6992 18.251C32.7947 18.2918 32.7556 18.6423 32.6775 18.8216C32.608 18.9928 32.0869 19.8406 32.0869 19.8406C32.0869 19.8406 31.7612 20.4193 31.8524 20.8718C32.469 19.9832 33.8717 18.1817 34.7402 18.7524C35.2917 19.1192 35.2917 20.3011 34.8791 20.9859C34.5534 21.528 33.6328 22.6488 32.4039 22.3879M34.2104 19.6164C33.889 19.9425 33.3158 20.562 32.8642 21.4016C33.3419 21.3527 33.8065 21.1041 33.9498 20.9777C34.18 20.7862 34.7098 20.2685 34.6273 19.5838C34.6273 19.5838 34.5751 19.2251 34.2104 19.6164ZM14.7559 22.8648C13.2186 23.305 11.7682 23.1012 10.9779 22.9056C10.9562 23.2072 10.9214 23.3335 10.8693 23.3824C10.8085 23.4476 10.3048 23.7166 10.0269 23.3335C9.90527 23.1501 9.84448 22.82 9.80974 22.5184C8.0293 21.7603 7.20422 20.6435 7.17817 20.6028C7.13474 20.562 6.73089 20.1666 7.13474 19.6776C7.51254 19.2374 8.76319 18.7931 9.88356 18.6179C9.92699 17.7212 10.0312 17.0283 10.1658 16.7226C10.3265 16.3558 10.5306 16.6819 10.713 16.9264C10.8606 17.1098 10.9518 17.8964 10.9605 18.5241C11.6901 18.4915 12.133 18.5404 12.945 18.6871C14.0133 18.8583 14.7255 19.3719 14.669 19.9506C14.6169 20.5212 14.0611 20.7576 13.8439 20.7739C13.6268 20.7902 13.2794 20.6394 13.2794 20.6394C13.0362 20.5335 13.2577 20.4356 13.54 20.3215C13.8526 20.1789 13.7831 20.0362 13.7831 20.0362C13.6702 19.7102 12.285 19.4941 10.9084 19.4941C10.9084 20.2074 10.9388 21.3894 10.9605 22.0782C11.9245 22.2494 12.6454 22.2127 12.6454 22.2127C12.6454 22.2127 16.1629 22.1189 16.2627 20.0118C16.3713 17.9005 12.7453 15.8789 10.0746 15.2431C7.40832 14.5869 5.89712 15.0515 5.76685 15.1127C5.62354 15.1779 5.75382 15.2024 5.75382 15.2024C5.75382 15.2024 5.89712 15.2227 6.15768 15.3042C6.41823 15.3858 6.20979 15.508 6.20979 15.508C5.75382 15.6548 5.24575 15.5692 5.14587 15.3735C5.04599 15.182 5.21101 15.0067 5.40642 14.7499C5.5888 14.485 5.79725 14.4932 5.79725 14.4932C9.09756 13.4131 13.1274 15.3491 13.1274 15.3491C16.8967 17.1343 17.5394 19.2333 17.4699 20.0484C17.4092 20.8514 17.0791 22.2086 14.7559 22.8689M7.50386 19.9506C7.1304 20.1137 7.39095 20.3745 7.39095 20.3745C8.09444 21.0796 8.95426 21.5239 9.77934 21.801C9.87488 20.5783 9.86619 20.1422 9.86619 19.5268C8.58949 19.6083 7.85126 19.8039 7.50386 19.9506Z" fill="black"/>
</g>
<defs>
<clipPath id="clip0_1_123">
<rect width="30.4" height="12" fill="white" transform="translate(4.94061 14)"/>
</clipPath>
</defs>
</svg>
