<svg width="28" height="32" viewBox="0 0 28 32" fill="none" xmlns="http://www.w3.org/2000/svg">
<path d="M27.9985 8.04221V14.8059H22.9002V11.1562L14.0131 6.6053L5.09828 11.1701V14.8059H0V8.05688L3.48379 6.27098L8.42224 3.7423L14.0131 0.880066L19.604 3.7423L24.5394 6.27098L27.9985 8.04221Z" fill="#C0ECD4"/>
<path d="M17.2025 14.5169C17.2025 15.7073 16.551 16.7446 15.5795 17.2949C15.5795 17.2949 15.5795 21.3846 15.5795 21.9218C15.5795 22.4589 14.8487 23.1023 14.005 23.1023C13.1613 23.1023 12.417 22.448 12.417 21.9218C12.417 21.3956 12.417 17.3012 12.417 17.3012C11.4454 16.7509 10.7939 15.7073 10.7939 14.5169C10.7939 12.7459 12.2272 11.3126 13.9982 11.3126C15.7692 11.3126 17.2025 12.7459 17.2025 14.5169Z" fill="#40B876"/>
<path d="M27.9992 17.9932C27.9992 22.8614 25.513 27.1474 21.742 29.656C19.526 31.1299 16.863 31.9901 14 31.9901C11.5647 31.9901 9.27851 31.3685 7.28414 30.2775C2.94485 27.9009 0 23.2922 0 17.9932H5.12994C5.12453 18.1306 5.12144 18.2688 5.12144 18.4093C5.12144 20.6307 5.9368 22.6614 7.28414 24.2226C8.91253 26.1011 11.3169 27.291 14 27.291C17.324 27.291 20.2209 25.4657 21.742 22.7602C22.4647 21.4746 22.8786 19.9899 22.8786 18.4093C22.8786 18.2688 22.8755 18.1306 22.8701 17.9932H28H27.9992Z" fill="#40B876"/>
</svg>
