<svg width="40" height="40" viewBox="0 0 40 40" fill="none" xmlns="http://www.w3.org/2000/svg">
<g clip-path="url(#clip0_1_67)">
<path d="M37.5 0H2.5C1.11929 0 0 1.11929 0 2.5V37.5C0 38.8807 1.11929 40 2.5 40H37.5C38.8807 40 40 38.8807 40 37.5V2.5C40 1.11929 38.8807 0 37.5 0Z" fill="#F5C518"/>
<path d="M5 14.375V25.625H8.125V14.375H5Z" fill="black"/>
<path d="M14.7953 14.375L14.0959 19.6303L13.6614 16.7719C13.5354 15.8563 13.4145 15.0573 13.2988 14.375H9.375V25.625H12.026L12.0363 18.1961L13.1523 25.625H15.0396L16.099 18.0324L16.1067 25.625H18.75V14.375H14.7953Z" fill="black"/>
<path d="M20 25.625V14.375H24.8778C25.9808 14.375 26.875 15.2625 26.875 16.3604V23.6396C26.875 24.7361 25.9823 25.625 24.8778 25.625H20ZM23.6452 16.3997C23.5212 16.3327 23.2841 16.3005 22.9392 16.3005V23.6822C23.3946 23.6822 23.6748 23.6003 23.7799 23.4291C23.885 23.2604 23.9389 22.8038 23.9389 22.0545V17.6924C23.9389 17.1838 23.92 16.8587 23.885 16.7148C23.8499 16.5709 23.7718 16.4667 23.6452 16.3997Z" fill="black"/>
<path d="M32.7687 17.1918H32.9684C34.0904 17.1918 35 18.0704 35 19.153V23.6637C35 24.7469 34.0907 25.625 32.9684 25.625H32.7687C32.0822 25.625 31.4752 25.296 31.1074 24.7927L30.9274 25.4805H28.125V14.375H31.1152V17.9878C31.5016 17.5063 32.097 17.1918 32.7687 17.1918ZM32.1285 22.6776V20.0119C32.1285 19.5715 32.1002 19.2824 32.0413 19.1494C31.9824 19.0163 31.7472 18.9309 31.5823 18.9309C31.4174 18.9309 31.163 19.0003 31.1135 19.1173V23.6297C31.1701 23.7581 31.4126 23.8296 31.5823 23.8296C31.752 23.8296 31.9989 23.7604 32.0507 23.6297C32.1026 23.4989 32.1285 23.18 32.1285 22.6776Z" fill="black"/>
</g>
<defs>
<clipPath id="clip0_1_67">
<rect width="40" height="40" rx="7" fill="white"/>
</clipPath>
</defs>
</svg>
