<svg width="40" height="40" viewBox="0 0 40 40" fill="none" xmlns="http://www.w3.org/2000/svg">
<rect x="0.25" y="0.25" width="39.5" height="39.5" rx="6.75" fill="#FAFAFA" stroke="#CBD5E1" stroke-width="0.5"/>
<g clip-path="url(#clip0_1_97)">
<path d="M7.91662 24.0312C7.41519 24.1217 6.90494 24.1488 6.3771 24.2211L4.76714 19.3745V24.4291C4.26571 24.4833 3.80826 24.5557 3.33319 24.628V15.3688H4.67043L6.50025 20.6224V15.3688H7.91662V24.0312ZM10.6878 18.7596C11.2333 18.7596 12.069 18.7325 12.5705 18.7325V20.1792C11.9458 20.1792 11.2157 20.1792 10.6878 20.2063V22.3584C11.5148 22.3042 12.3418 22.2318 13.1775 22.2046V23.5971L9.2802 23.9136V15.3688H13.1775V16.8155H10.6878V18.7596ZM18.4119 16.8155H16.9516V23.4706C16.4765 23.4706 16.0014 23.4706 15.544 23.4887V16.8155H14.0837V15.3688H18.412L18.4119 16.8155ZM20.6992 18.6602H22.6259V20.1069H20.6992V23.3893H19.3179V15.3688H23.2505V16.8155H20.6992V18.6602ZM25.5378 22.1233C26.3384 22.1413 27.1477 22.2047 27.9307 22.2499V23.6786C26.6727 23.5971 25.4146 23.5159 24.1302 23.4887V15.3688H25.5378V22.1233ZM29.1183 23.778C29.567 23.8052 30.042 23.8323 30.4995 23.8865V15.3688H29.1183V23.778ZM36.6665 15.3688L34.8806 19.7723L36.6665 24.628C36.1386 24.5557 35.6108 24.4562 35.0829 24.3658L34.0713 21.6893L33.0421 24.1488C32.5317 24.0583 32.0391 24.0312 31.5289 23.9588L33.3412 19.718L31.7048 15.3688H33.2179L34.1416 17.8011L35.127 15.3688H36.6665Z" fill="#D81F26"/>
</g>
<defs>
<clipPath id="clip0_1_97">
<rect width="33.3333" height="9.25926" fill="white" transform="translate(3.33319 15.3688)"/>
</clipPath>
</defs>
</svg>
