<svg width="31" height="31" viewBox="0 0 31 31" fill="none" xmlns="http://www.w3.org/2000/svg">
<circle cx="15.4561" cy="15.3516" r="15" fill="#277E4E"/>
<path d="M20.5836 20.4446H19.0236C18.8486 20.4446 18.7036 20.4021 18.5886 20.3171C18.4786 20.2271 18.3986 20.1171 18.3486 19.9871L17.5386 17.7746H13.0461L12.2361 19.9871C12.1961 20.1021 12.1161 20.2071 11.9961 20.3021C11.8811 20.3971 11.7386 20.4446 11.5686 20.4446H10.0011L14.2611 9.59958H16.3236L20.5836 20.4446ZM13.5636 16.3496H17.0211L15.7011 12.7421C15.6411 12.5821 15.5736 12.3946 15.4986 12.1796C15.4286 11.9596 15.3586 11.7221 15.2886 11.4671C15.2186 11.7221 15.1486 11.9596 15.0786 12.1796C15.0136 12.3996 14.9486 12.5921 14.8836 12.7571L13.5636 16.3496Z" fill="white"/>
</svg>
